<svg xmlns:xlink="http://www.w3.org/1999/xlink" x="0px" y="0px" width="48" height="48" viewBox="0 0 48 48">
  <defs id="defs30">
    <path d="M 6.5,6.5 H 22 v 18 H 6.5 Z M 4.6,4 C 4.6,4 4,4 4,4.5 v 21.9 c 0,0 0,0.5 0.6,0.5 H 24 c 0,0 0.6,0 0.6,-0.5 V 4.5 c 0,0 0,-0.5 -0.6,-0.5 z" id="SVGID_4_" />
  </defs>
  <path style="fill:#505050;fill-opacity:1;stroke-width:1" d="M 3.6992188 7.7167969 C 3.6992188 7.7167969 3.0644531 7.7168969 3.0644531 8.34375 L 3.0644531 28.613281 C 3.0644531 28.613281 3.0637861 29.240234 3.6992188 29.240234 L 9.28125 29.240234 L 9.28125 26.626953 L 6.2402344 26.626953 L 6.2402344 10.433594 L 29.117188 10.433594 L 29.117188 13.316406 L 32.166016 13.316406 L 32.166016 8.34375 C 32.166016 8.34375 32.166682 7.7167969 31.53125 7.7167969 L 3.6992188 7.7167969 z " />
  <path style="fill:#505050;fill-opacity:1;stroke-width:1" d="M 9.9785156 13.160156 C 9.9785156 13.160156 9.34375 13.160256 9.34375 13.787109 L 9.34375 34.056641 C 9.34375 34.056641 9.3430829 34.683594 9.9785156 34.683594 L 15.769531 34.683594 L 15.769531 32.070312 L 12.521484 32.070312 L 12.521484 15.876953 L 35.396484 15.876953 L 35.396484 18.759766 L 38.447266 18.759766 L 38.447266 13.787109 C 38.447266 13.787109 38.445979 13.160156 37.810547 13.160156 L 9.9785156 13.160156 z " />
  <use transform="matrix(0,-1.0447552,1.2708655,0,10.750175,44.304634)" xlink:href="#SVGID_4_" overflow="visible" style="overflow:visible;stroke-width:0.867847;fill:#505050;fill-opacity:1" x="0" y="0" width="32" height="32" />
</svg>
